# xmcd
#
# Track frame offsets:
#	150
#	23165
#	41504
#	62423
#	85931
#	98726
#	110667
#	131368
#	150078
#	170075
#	181934
#
# Disc length: 2673 seconds
#
# Revision: 1
# Processed by: cddbd v1.5.1PL0 Copyright (c) Steve Scherf et al.
# Submitted via: audiograbber 1.83.01
#
DISCID=7d0a6f0b
DTITLE=Joe Cocker - Best of studio and live cd1
DYEAR=1900
DGENRE=Soul
TTITLE0=With a little help from my friends
TTITLE1=Feeling alright
TTITLE2=Just like a woman
TTITLE3=Don't let me be misunderstood
TTITLE4=Delta lady
TTITLE5=She came through the bathroom window
TTITLE6=Hitchcock railway
TTITLE7=The letter
TTITLE8=High time we went
TTITLE9=You are so beautiful
TTITLE10=Jamaica say you will
EXTD=
EXTT0=
EXTT1=
EXTT2=
EXTT3=
EXTT4=
EXTT5=
EXTT6=
EXTT7=
EXTT8=
EXTT9=
EXTT10=
PLAYORDER=
